# xmcd
#
# Track frame offsets:
#	150
#	14665
#	41288
#	74851
#
# Disc length: 1440 seconds
#
# Revision: 1
# Processed by: cddbd v1.4PL0 Copyright (c) Steve Scherf et al.
# Submitted via: EasyCDDAExtractor 6.0.0.1
#
DISCID=35059e04
DTITLE=Angel City
DYEAR=2003
DGENRE=Dance
TTITLE0=Love Me Right
TTITLE1=Love Me Right (Original Mix)
TTITLE2=Love Me Right (Krystal K Remix)
TTITLE3=Love Me Right (Smith and Pledger Remix)
EXTD=
EXTT0=
EXTT1=
EXTT2=
EXTT3=
PLAYORDER=
